<svg width="32" height="32" viewBox="0 0 32 32" fill="none" xmlns="http://www.w3.org/2000/svg">
<g clip-path="url(#clip0_1883_1503)">
<path d="M3.99994 28.9999C3.86833 29.0007 3.73787 28.9755 3.61603 28.9257C3.49419 28.8759 3.38338 28.8026 3.28994 28.7099C3.19621 28.617 3.12182 28.5064 3.07105 28.3845C3.02028 28.2627 2.99414 28.132 2.99414 27.9999C2.99414 27.8679 3.02028 27.7372 3.07105 27.6154C3.12182 27.4935 3.19621 27.3829 3.28994 27.2899L27.2899 3.28994C27.4782 3.10164 27.7336 2.99585 27.9999 2.99585C28.2662 2.99585 28.5216 3.10164 28.7099 3.28994C28.8982 3.47825 29.004 3.73364 29.004 3.99994C29.004 4.26624 28.8982 4.52164 28.7099 4.70994L4.70994 28.7099C4.6165 28.8026 4.50568 28.8759 4.38385 28.9257C4.26201 28.9755 4.13155 29.0007 3.99994 28.9999Z" fill="white"/>
<path d="M27.9997 28.9999C27.8681 29.0007 27.7376 28.9755 27.6158 28.9257C27.494 28.8759 27.3831 28.8026 27.2897 28.7099L3.2897 4.70994C3.10139 4.52164 2.99561 4.26624 2.99561 3.99994C2.99561 3.73364 3.10139 3.47824 3.2897 3.28994C3.478 3.10164 3.7334 2.99585 3.9997 2.99585C4.266 2.99585 4.52139 3.10164 4.7097 3.28994L28.7097 27.2899C28.8034 27.3829 28.8778 27.4935 28.9286 27.6154C28.9794 27.7372 29.0055 27.8679 29.0055 27.9999C29.0055 28.132 28.9794 28.2627 28.9286 28.3845C28.8778 28.5064 28.8034 28.617 28.7097 28.7099C28.6163 28.8026 28.5054 28.8759 28.3836 28.9257C28.2618 28.9755 28.1313 29.0007 27.9997 28.9999Z" fill="white"/>
</g>
<defs>
<clipPath id="clip0_1883_1503">
<rect width="32" height="32" fill="white"/>
</clipPath>
</defs>
</svg>
