<svg width="184" height="58" viewBox="0 0 184 58" fill="none" xmlns="http://www.w3.org/2000/svg">
<path d="M72 29C72 34.5228 67.5228 39 62 39C56.4772 39 52 34.5228 52 29C52 23.4772 56.4772 19 62 19C67.5228 19 72 23.4772 72 29Z" fill="#559D11"/>
<path d="M0.856 41V15.704H13.504L20.338 30.154L27.308 15.704H39.412V41H30.436V25.19L22.922 41H17.142L9.696 25.19V41H0.856Z" fill="black"/>
<path d="M60.2798 15.262H61.8098C75.3078 15.262 78.0958 22.538 78.0958 27.774V28.794C78.0958 33.962 75.3418 41.442 61.8098 41.442H60.2798C46.8158 41.442 43.9938 33.962 43.9938 28.794V27.774C43.9938 22.504 46.8498 15.262 60.2798 15.262ZM68.5078 28.42V28.046C68.5078 25.598 67.4198 22.13 61.0278 22.13C54.6358 22.13 53.5818 25.598 53.5818 28.046V28.42C53.5818 30.868 54.7038 34.472 61.0618 34.472C67.4198 34.472 68.5078 30.868 68.5078 28.42Z" fill="black"/>
<path d="M82.7017 41V15.704H91.8817V24.612H104.7V15.704H113.846V41H104.7V31.412H91.8817V41H82.7017Z" fill="black"/>
<path d="M128.397 41V22.674H118.265V15.704H147.675V22.674H137.543V41H128.397Z" fill="black"/>
<path d="M173.89 41V25.734L161.276 41H152.096V15.704H161.276V30.97L173.89 15.704H183.036V41H173.89Z" fill="black"/>
<path d="M0 49H123V58H0V49Z" fill="#559D11"/>
<path d="M123 49H184V58H123V49Z" fill="#383838"/>
<path d="M118 0H148V6H118V0Z" fill="#559D11"/>
</svg>
