<svg width="69" height="68" viewBox="0 0 69 68" fill="none" xmlns="http://www.w3.org/2000/svg">
<rect width="69" height="67" fill="url(#paint0_linear_2280_128)"/>
<rect x="16.24" y="18.7832" width="14.6779" height="48.2165" fill="#416B19"/>
<rect x="26.433" y="29.3569" width="4.48491" height="5.07542" fill="#D7F6FF"/>
<rect x="26.433" y="20.8979" width="4.48491" height="5.07542" fill="#D7F6FF"/>
<rect x="26.433" y="37.8164" width="4.48491" height="5.07542" fill="#D7F6FF"/>
<rect x="26.433" y="46.2754" width="4.48491" height="5.07542" fill="#D7F6FF"/>
<rect x="26.433" y="54.7339" width="4.48491" height="5.07542" fill="#D7F6FF"/>
<rect y="0.774902" width="20.16" height="66.2251" fill="#559D11"/>
<rect x="14" y="15.2979" width="6.16" height="6.97106" fill="#D7F6FF"/>
<rect x="14" y="3.6792" width="6.16" height="6.97106" fill="#D7F6FF"/>
<rect x="14" y="26.9165" width="6.16" height="6.97106" fill="#D7F6FF"/>
<rect x="14" y="38.5347" width="6.16" height="6.97106" fill="#D7F6FF"/>
<rect x="14" y="50.1533" width="6.16" height="6.97106" fill="#D7F6FF"/>
<path d="M42.3536 0.646447C42.1583 0.451184 41.8417 0.451184 41.6464 0.646447L38.4645 3.82843C38.2692 4.02369 38.2692 4.34027 38.4645 4.53553C38.6597 4.7308 38.9763 4.7308 39.1716 4.53553L42 1.70711L44.8284 4.53553C45.0237 4.7308 45.3403 4.7308 45.5355 4.53553C45.7308 4.34027 45.7308 4.02369 45.5355 3.82843L42.3536 0.646447ZM41.6464 67.3536C41.8417 67.5488 42.1583 67.5488 42.3536 67.3536L45.5355 64.1716C45.7308 63.9763 45.7308 63.6597 45.5355 63.4645C45.3403 63.2692 45.0237 63.2692 44.8284 63.4645L42 66.2929L39.1716 63.4645C38.9763 63.2692 38.6597 63.2692 38.4645 63.4645C38.2692 63.6597 38.2692 63.9763 38.4645 64.1716L41.6464 67.3536ZM41.5 1L41.5 67L42.5 67L42.5 1L41.5 1Z" fill="black"/>
<defs>
<linearGradient id="paint0_linear_2280_128" x1="34.5" y1="0" x2="34.5" y2="67" gradientUnits="userSpaceOnUse">
<stop stop-color="#CCF3FF"/>
<stop offset="1" stop-color="#EAEAEA"/>
</linearGradient>
</defs>
</svg>
