<svg width="38" height="38" viewBox="0 0 38 38" fill="none" xmlns="http://www.w3.org/2000/svg">
<g clip-path="url(#clip0_2271_26)">
<path d="M18.6122 37.2245C28.8915 37.2245 37.2245 28.8915 37.2245 18.6122C37.2245 8.33301 28.8915 0 18.6122 0C8.33301 0 0 8.33301 0 18.6122C0 28.8915 8.33301 37.2245 18.6122 37.2245Z" fill="url(#paint0_linear_2271_26)"/>
<path d="M6.93168 19.5228C9.10744 18.3244 11.5362 17.3241 13.8055 16.3187C17.7096 14.672 21.6291 13.0538 25.5883 11.5473C26.3586 11.2906 27.7426 11.0396 27.8784 12.1812C27.8041 13.797 27.4984 15.4034 27.2887 17.0098C26.7564 20.5424 26.1413 24.0629 25.5414 27.5839C25.3348 28.7567 23.8656 29.3638 22.9255 28.6133C20.6663 27.0872 18.3897 25.5761 16.1593 24.0147C15.4287 23.2723 16.1062 22.2062 16.7587 21.676C18.6195 19.8423 20.5928 18.2843 22.3563 16.3557C22.832 15.207 21.4265 16.1751 20.9629 16.4718C18.4155 18.2272 15.9305 20.0898 13.2447 21.6326C11.8728 22.3878 10.2739 21.7424 8.90263 21.321C7.67312 20.812 5.87156 20.2991 6.93168 19.5228Z" fill="white"/>
</g>
<defs>
<linearGradient id="paint0_linear_2271_26" x1="13.9614" y1="1.55226" x2="4.65523" y2="23.2653" gradientUnits="userSpaceOnUse">
<stop stop-color="#37AEE2"/>
<stop offset="1" stop-color="#1E96C8"/>
</linearGradient>
<clipPath id="clip0_2271_26">
<rect width="37.2245" height="37.2245" fill="white"/>
</clipPath>
</defs>
</svg>
