<svg width="69" height="69" viewBox="0 0 69 69" fill="none" xmlns="http://www.w3.org/2000/svg">
<g clip-path="url(#clip0_2280_130)">
<rect width="69" height="68.2959" fill="#D9D9D9"/>
<path d="M69 69H0V52.8061H69V69Z" fill="url(#paint0_linear_2280_130)"/>
<path d="M0 0H24.3542V53.6587L0 65.6613V0Z" fill="#233612"/>
<path d="M0 0H24.3542V53.6587L0 65.6613V0Z" fill="url(#paint1_linear_2280_130)"/>
<rect x="12.3397" y="50.1602" width="11.0198" height="11.5821" fill="#A57749"/>
<path d="M23.3595 50.1602L29.099 48.4712V59.0881L23.3595 61.7423V50.1602Z" fill="#875D35"/>
<path d="M12.3397 50.1602L18.3088 48.4712H29.099L23.3595 50.1602H12.3397Z" fill="#51381F"/>
<rect x="26.1145" y="50.1602" width="11.0198" height="11.5821" fill="#A57749"/>
<path d="M37.1343 50.1602L42.8738 48.4712V59.0881L37.1343 61.7423V50.1602Z" fill="#875D35"/>
<path d="M26.1145 50.1602L32.0836 48.4712H42.8738L37.1343 50.1602H26.1145Z" fill="#51381F"/>
<rect x="0.669922" y="53.9258" width="11.9869" height="12.5985" fill="#BF8A56"/>
<path d="M12.6569 53.9257L18.9 52.0884V63.637L12.6569 66.5241V53.9257Z" fill="#875D35"/>
<path d="M0.669922 53.9257L7.16283 52.0884H18.9L12.6568 53.9257H0.669922Z" fill="#51381F"/>
<rect x="15.6536" y="53.9258" width="11.9869" height="12.5985" fill="#BF8A56"/>
<path d="M27.6405 53.9257L33.8837 52.0884V63.637L27.6405 66.5241V53.9257Z" fill="#875D35"/>
<path d="M15.6536 53.9257L22.1465 52.0884H33.8836L27.6405 53.9257H15.6536Z" fill="#51381F"/>
<line x1="4.48547" x2="4.48547" y2="25.5968" stroke="black" stroke-width="0.5"/>
<line x1="14.0154" x2="14.0154" y2="20.0323" stroke="black" stroke-width="0.5"/>
<line x1="22.4865" x2="22.4865" y2="17.8065" stroke="black" stroke-width="0.5"/>
<g filter="url(#filter0_d_2280_130)">
<ellipse cx="14.2949" cy="22.8145" rx="2.6472" ry="2.78226" fill="#FFF500"/>
</g>
<g filter="url(#filter1_d_2280_130)">
<ellipse cx="22.2364" cy="18.3627" rx="2.11776" ry="1.66935" fill="#FFF500"/>
</g>
<g filter="url(#filter2_d_2280_130)">
<ellipse cx="4.76491" cy="28.9359" rx="3.70608" ry="3.33871" fill="#FFF500"/>
</g>
<g clip-path="url(#clip1_2280_130)">
<path d="M36.6673 37.9873H44.268C44.8013 37.9873 45.2335 37.5481 45.2335 37.0064C45.2335 36.4646 44.8013 36.0254 44.268 36.0254H36.6673V37.9873Z" fill="#559D11"/>
<path d="M52.0748 52.9042L53.7341 51.2183L46.7126 44.0845C46.2544 43.619 45.5115 43.619 45.0532 44.0845C44.595 44.55 44.595 45.3048 45.0532 45.7704L52.0748 52.9042Z" fill="#35610B"/>
<path d="M49.2443 46.6567L53.7341 51.2183L52.0748 52.9042L47.8562 48.6182C48.1897 47.8742 48.6641 47.2087 49.2443 46.6567Z" fill="#559D11"/>
<path d="M59.9031 54.2207H50.2271V59.9046H59.9031V54.2207Z" fill="#559D11"/>
<path d="M59.9031 54.2207H50.2271V55.4938H59.9031V54.2207Z" fill="#35610B"/>
<path d="M61.2672 54.2205H48.8629C48.7259 54.2205 48.6148 54.1076 48.6148 53.9683V51.1751C48.6148 48.4866 50.7599 46.3071 53.4061 46.3071H61.2672C61.4043 46.3071 61.5154 46.42 61.5154 46.5593V53.9683C61.5154 54.1076 61.4043 54.2205 61.2672 54.2205Z" fill="#559D11"/>
<path d="M53.4061 46.3071H54.6281C51.9818 46.3071 49.8367 48.4866 49.8367 51.1751V53.9683C49.8367 54.1076 49.9478 54.2205 50.0848 54.2205H48.8629C48.7258 54.2205 48.6147 54.1076 48.6147 53.9683V51.1751C48.6147 48.4866 50.7599 46.3071 53.4061 46.3071Z" fill="#35610B"/>
<path d="M59.2256 61.7614C57.6565 61.3846 56.6852 59.7868 57.0561 58.1927C57.427 56.5986 58.9997 55.6118 60.5687 55.9886C62.1378 56.3654 63.1091 57.9632 62.7382 59.5573C62.3673 61.1514 60.7947 62.1383 59.2256 61.7614Z" fill="#7D8C97"/>
<path d="M59.5293 59.8451C59.0102 59.6443 58.7496 59.054 58.9473 58.5266C59.1449 57.9992 59.726 57.7344 60.245 57.9352C60.7641 58.136 61.0247 58.7264 60.8271 59.2537C60.6294 59.7811 60.0484 60.0459 59.5293 59.8451Z" fill="#D7E3F2"/>
<path d="M49.552 61.759C47.9829 61.3822 47.0116 59.7844 47.3825 58.1903C47.7534 56.5961 49.3261 55.6093 50.8951 55.9861C52.4642 56.363 53.4355 57.9608 53.0646 59.5549C52.6937 61.149 51.1211 62.1358 49.552 61.759Z" fill="#7D8C97"/>
<path d="M49.9121 59.8466C49.383 59.6757 49.0905 59.1014 49.2587 58.5639C49.4269 58.0263 49.9922 57.7291 50.5213 57.9C51.0503 58.0709 51.3429 58.6452 51.1747 59.1828C51.0064 59.7203 50.4412 60.0175 49.9121 59.8466Z" fill="#D7E3F2"/>
<path d="M34.8607 37.9868H42.9663C43.1137 37.9868 43.2332 37.8655 43.2332 37.7157V35.6611H34.5939V37.7158C34.5939 37.8655 34.7134 37.9868 34.8607 37.9868Z" fill="#559D11"/>
<path d="M56.867 38.3441C56.6288 37.7602 56.9016 37.0906 57.4763 36.8485C58.0511 36.6065 58.7102 36.8836 58.9484 37.4676C59.1866 38.0515 58.9138 38.7211 58.3391 38.9632C57.7643 39.2052 57.1053 38.928 56.867 38.3441Z" fill="#559D11"/>
<path d="M49.3077 33.934C48.7896 33.8095 48.4688 33.2819 48.5913 32.7555C48.7138 32.2291 49.2331 31.9032 49.7513 32.0276C50.2694 32.1521 50.5902 32.6797 50.4677 33.2061C50.3452 33.7325 49.8259 34.0584 49.3077 33.934Z" fill="#559D11"/>
<path d="M53.4061 48.3242H54.6956C54.7642 48.3242 54.8197 48.3806 54.8197 48.4503V51.4031C54.8197 51.4727 54.7642 51.5291 54.6956 51.5291H50.7242C50.6556 51.5291 50.6001 51.4727 50.6001 51.4031V51.1751C50.6001 49.6006 51.8564 48.3242 53.4061 48.3242Z" fill="#5C6C75"/>
<path d="M59.903 57.3892C60.7138 57.3892 61.3735 58.0594 61.3735 58.8832C61.3735 59.7071 60.7138 60.3772 59.903 60.3772C59.0921 60.3772 58.4324 59.707 58.4324 58.8832C58.4324 58.0593 59.0921 57.3892 59.903 57.3892ZM59.903 59.4317C60.2007 59.4317 60.4429 59.1857 60.4429 58.8832C60.4429 58.5807 60.2007 58.3346 59.903 58.3346C59.6052 58.3346 59.3631 58.5807 59.3631 58.8832C59.3631 59.1857 59.6053 59.4317 59.903 59.4317Z" fill="black"/>
<path d="M51.6976 58.8832C51.6976 59.707 51.038 60.3773 50.2271 60.3773C49.4162 60.3773 48.7565 59.7071 48.7565 58.8832C48.7565 58.0594 49.4162 57.3892 50.2271 57.3892C51.038 57.3892 51.6976 58.0594 51.6976 58.8832ZM49.6872 58.8832C49.6872 59.1857 49.9294 59.4318 50.2271 59.4318C50.5248 59.4318 50.767 59.1857 50.767 58.8832C50.767 58.5807 50.5248 58.3347 50.2271 58.3347C49.9294 58.3347 49.6872 58.5808 49.6872 58.8832Z" fill="black"/>
<path d="M34.8636 30.0483H42.9634C43.3687 30.0483 43.6984 30.3833 43.6984 30.7951V35.5526H44.2679C44.5307 35.5526 44.7769 35.6253 44.9888 35.7514L48.1595 33.4107C48.1188 33.2761 48.0968 33.1334 48.0968 32.9855C48.0968 32.1847 48.7381 31.5331 49.5264 31.5331C50.3148 31.5331 50.956 32.1847 50.956 32.9855C50.956 33.0803 50.9468 33.173 50.9296 33.2628L56.8266 36.722C57.111 36.4527 57.4922 36.2874 57.9108 36.2874C58.7884 36.2874 59.5024 37.0128 59.5024 37.9045C59.5024 38.7961 58.7884 39.5215 57.9108 39.5215C57.5041 39.5215 57.1328 39.3656 56.8511 39.1097L47.7365 44.4562L50.1934 46.9525C51.0825 46.2526 52.1968 45.8345 53.4061 45.8345H57.169C57.426 45.8345 57.6344 46.0462 57.6344 46.3073C57.6344 46.5684 57.426 46.7801 57.169 46.7801H53.4061C51.0207 46.7801 49.0801 48.7517 49.0801 51.1753V53.7479H61.05V46.7801H59.3405C59.0835 46.7801 58.8752 46.5684 58.8752 46.3073C58.8752 46.0462 59.0835 45.8345 59.3405 45.8345H61.2671C61.6606 45.8345 61.9806 46.1597 61.9806 46.5594V53.9685C61.9806 54.3682 61.6606 54.6934 61.2671 54.6934H60.3682V55.4773C62.0154 55.7085 63.2882 57.1473 63.2882 58.8833C63.2882 60.7797 61.7696 62.3226 59.903 62.3226C58.563 62.3226 57.4026 61.5275 56.8543 60.3773H53.2757C52.7274 61.5275 51.567 62.3226 50.227 62.3226C49.4783 62.3226 48.7687 62.0792 48.1749 61.6187C47.9706 61.4603 47.9313 61.1637 48.0873 60.9561C48.2432 60.7485 48.5352 60.7086 48.7395 60.8671C49.1697 61.2007 49.6841 61.377 50.227 61.377C51.5804 61.377 52.6816 60.2583 52.6816 58.8832C52.6816 57.5082 51.5806 56.3895 50.2272 56.3895C48.8737 56.3895 47.7726 57.5082 47.7726 58.8832C47.7726 59.0188 47.7833 59.1549 47.8046 59.2874C47.8458 59.5451 47.6737 59.788 47.42 59.8299C47.1665 59.8717 46.9273 59.6969 46.886 59.4392C46.8568 59.2567 46.842 59.0696 46.842 58.8832C46.842 57.1473 48.1148 55.7084 49.7619 55.4773V54.6933H48.863C48.4696 54.6933 48.1495 54.3681 48.1495 53.9684V51.1752C48.1495 50.6897 48.2148 50.2196 48.3348 49.7723L44.7247 46.1046C44.4149 45.7903 44.2443 45.3721 44.2443 44.9272C44.2443 44.4823 44.415 44.0643 44.7242 43.7504C45.0336 43.4357 45.4452 43.2624 45.883 43.2624C46.3209 43.2624 46.7324 43.4357 47.0416 43.7502L47.0553 43.7641L56.3679 38.3015C56.3362 38.1744 56.3192 38.0414 56.3192 37.9045C56.3192 37.7792 56.3337 37.6574 56.3604 37.5403L50.4635 34.0811C50.2124 34.303 49.8848 34.4379 49.5265 34.4379C49.222 34.4379 48.9397 34.3404 48.7076 34.175L45.5977 36.4708C45.6627 36.6366 45.6987 36.8172 45.6987 37.0063C45.6987 37.8078 45.0569 38.4599 44.268 38.4599H42.9718C42.97 38.4599 42.9682 38.4601 42.9664 38.4601H34.8607C34.457 38.4601 34.1286 38.1265 34.1286 37.7163V30.7951C34.1285 30.3833 34.4583 30.0483 34.8636 30.0483ZM59.903 61.377C61.2564 61.377 62.3576 60.2583 62.3576 58.8832C62.3576 57.5082 61.2564 56.3895 59.9029 56.3895C58.5495 56.3895 57.4484 57.5082 57.4484 58.8832C57.4485 60.2583 58.5496 61.377 59.903 61.377ZM50.6925 55.4773C52.3395 55.7085 53.6122 57.1473 53.6122 58.8833C53.6122 59.07 53.5969 59.2531 53.5686 59.4318H56.5613C56.533 59.2531 56.5178 59.07 56.5178 58.8833C56.5178 57.1473 57.7905 55.7085 59.4376 55.4773V54.6934H50.6925V55.4773ZM45.8829 44.2078C45.6939 44.2078 45.5162 44.2826 45.3822 44.4189C45.2485 44.5546 45.1748 44.7351 45.1748 44.9272C45.1748 45.1193 45.2485 45.2999 45.3823 45.4357L48.6976 48.804C48.9136 48.3631 49.187 47.9562 49.5092 47.5946L46.3831 44.4185C46.2496 44.2826 46.072 44.2078 45.8829 44.2078ZM42.7678 35.1888V33.5641H39.3788V35.1888H42.7678V35.1888ZM38.4482 33.5641H35.0592V35.1888H38.4482V33.5641ZM35.0592 32.6186H38.4482V30.9939H35.0592V32.6186ZM39.3788 30.9939V32.6186H42.7678V30.9939H39.3788ZM57.9108 38.576C58.2752 38.576 58.5717 38.2747 58.5717 37.9045C58.5717 37.5342 58.2752 37.2329 57.9108 37.2329C57.5463 37.2329 57.2498 37.5342 57.2498 37.9045C57.2498 38.2747 57.5463 38.576 57.9108 38.576ZM50.0254 32.9855C50.0254 32.706 49.8016 32.4786 49.5264 32.4786C49.2513 32.4786 49.0275 32.706 49.0275 32.9855C49.0275 33.265 49.2513 33.4924 49.5264 33.4924C49.8016 33.4924 50.0254 33.265 50.0254 32.9855ZM44.768 37.0062C44.768 36.7261 44.5436 36.4981 44.2679 36.4981H43.6984V37.5143H44.2679C44.5437 37.5143 44.768 37.2863 44.768 37.0062ZM35.0592 37.5145H42.7678V36.1344H35.0592V37.5145Z" fill="black"/>
<path d="M50.7242 52.002C50.3992 52.002 50.1348 51.7334 50.1348 51.4032V51.1752C50.1348 49.3425 51.6023 47.8516 53.4061 47.8516H54.6956C55.0206 47.8516 55.285 48.1202 55.285 48.4504V51.4032C55.285 51.7334 55.0206 52.002 54.6956 52.002H50.7242ZM54.3544 48.7971H53.4061C52.1546 48.7971 51.1293 49.8001 51.0683 51.0565H54.3544V48.7971Z" fill="black"/>
<path d="M57.6116 47.8516H58.8977C59.1547 47.8516 59.363 48.0632 59.363 48.3243C59.363 48.5854 59.1547 48.7971 58.8977 48.7971H57.6116C57.3546 48.7971 57.1463 48.5854 57.1463 48.3243C57.1463 48.0632 57.3546 47.8516 57.6116 47.8516Z" fill="black"/>
<path d="M57.6116 49.4541H58.8977C59.1547 49.4541 59.363 49.6658 59.363 49.9269C59.363 50.188 59.1547 50.3996 58.8977 50.3996H57.6116C57.3546 50.3996 57.1463 50.188 57.1463 49.9269C57.1463 49.6658 57.3546 49.4541 57.6116 49.4541Z" fill="black"/>
<path d="M57.6116 51.0566H58.8977C59.1547 51.0566 59.363 51.2683 59.363 51.5294C59.363 51.7905 59.1547 52.0022 58.8977 52.0022H57.6116C57.3546 52.0022 57.1463 51.7905 57.1463 51.5294C57.1463 51.2683 57.3546 51.0566 57.6116 51.0566Z" fill="black"/>
</g>
</g>
<defs>
<filter id="filter0_d_2280_130" x="-14.3523" y="-1.96777" width="57.2944" height="57.5645" filterUnits="userSpaceOnUse" color-interpolation-filters="sRGB">
<feFlood flood-opacity="0" result="BackgroundImageFix"/>
<feColorMatrix in="SourceAlpha" type="matrix" values="0 0 0 0 0 0 0 0 0 0 0 0 0 0 0 0 0 0 127 0" result="hardAlpha"/>
<feMorphology radius="2" operator="dilate" in="SourceAlpha" result="effect1_dropShadow_2280_130"/>
<feOffset dy="4"/>
<feGaussianBlur stdDeviation="12"/>
<feComposite in2="hardAlpha" operator="out"/>
<feColorMatrix type="matrix" values="0 0 0 0 1 0 0 0 0 0.96 0 0 0 0 0 0 0 0 1 0"/>
<feBlend mode="normal" in2="BackgroundImageFix" result="effect1_dropShadow_2280_130"/>
<feBlend mode="normal" in="SourceGraphic" in2="effect1_dropShadow_2280_130" result="shape"/>
</filter>
<filter id="filter1_d_2280_130" x="-5.88135" y="-5.30664" width="56.2355" height="55.3389" filterUnits="userSpaceOnUse" color-interpolation-filters="sRGB">
<feFlood flood-opacity="0" result="BackgroundImageFix"/>
<feColorMatrix in="SourceAlpha" type="matrix" values="0 0 0 0 0 0 0 0 0 0 0 0 0 0 0 0 0 0 127 0" result="hardAlpha"/>
<feMorphology radius="2" operator="dilate" in="SourceAlpha" result="effect1_dropShadow_2280_130"/>
<feOffset dy="4"/>
<feGaussianBlur stdDeviation="12"/>
<feComposite in2="hardAlpha" operator="out"/>
<feColorMatrix type="matrix" values="0 0 0 0 1 0 0 0 0 0.96 0 0 0 0 0 0 0 0 1 0"/>
<feBlend mode="normal" in2="BackgroundImageFix" result="effect1_dropShadow_2280_130"/>
<feBlend mode="normal" in="SourceGraphic" in2="effect1_dropShadow_2280_130" result="shape"/>
</filter>
<filter id="filter2_d_2280_130" x="-24.9412" y="3.59717" width="59.4121" height="58.6772" filterUnits="userSpaceOnUse" color-interpolation-filters="sRGB">
<feFlood flood-opacity="0" result="BackgroundImageFix"/>
<feColorMatrix in="SourceAlpha" type="matrix" values="0 0 0 0 0 0 0 0 0 0 0 0 0 0 0 0 0 0 127 0" result="hardAlpha"/>
<feMorphology radius="2" operator="dilate" in="SourceAlpha" result="effect1_dropShadow_2280_130"/>
<feOffset dy="4"/>
<feGaussianBlur stdDeviation="12"/>
<feComposite in2="hardAlpha" operator="out"/>
<feColorMatrix type="matrix" values="0 0 0 0 1 0 0 0 0 0.96 0 0 0 0 0 0 0 0 1 0"/>
<feBlend mode="normal" in2="BackgroundImageFix" result="effect1_dropShadow_2280_130"/>
<feBlend mode="normal" in="SourceGraphic" in2="effect1_dropShadow_2280_130" result="shape"/>
</filter>
<linearGradient id="paint0_linear_2280_130" x1="8.74648" y1="69" x2="47.6263" y2="66.5758" gradientUnits="userSpaceOnUse">
<stop stop-color="#737373"/>
<stop offset="1" stop-color="#484848"/>
</linearGradient>
<linearGradient id="paint1_linear_2280_130" x1="38.9667" y1="35.8457" x2="16.5616" y2="63.8407" gradientUnits="userSpaceOnUse">
<stop stop-color="#416B19"/>
<stop offset="1" stop-color="#559D11"/>
</linearGradient>
<clipPath id="clip0_2280_130">
<rect width="69" height="69" fill="white"/>
</clipPath>
<clipPath id="clip1_2280_130">
<rect width="31.7664" height="32.2742" fill="white" transform="matrix(-1 0 0 1 64.5916 30.0483)"/>
</clipPath>
</defs>
</svg>
