<svg width="70" height="69" viewBox="0 0 70 69" fill="none" xmlns="http://www.w3.org/2000/svg">
<rect width="69" height="69" fill="#D9D9D9"/>
<path d="M0 0L13.8776 4.92857V65.4796L0 69V0Z" fill="url(#paint0_linear_2280_129)"/>
<path d="M69 0H0L14.2245 5.63265H69V0Z" fill="#737373"/>
<path d="M69.5 69H0L14.2245 63.3673H69.5V69Z" fill="url(#paint1_linear_2280_129)"/>
<path d="M16.5161 43.0651C16.2672 43.0651 16.0652 42.8805 16.0652 42.6521V41.413C16.0652 41.1846 16.2672 41 16.5161 41C16.765 41 16.9671 41.1846 16.9671 41.413V42.6521C16.9671 42.8804 16.765 43.0651 16.5161 43.0651Z" fill="#383838"/>
<path d="M41.7697 43.0651C41.5208 43.0651 41.3187 42.8805 41.3187 42.6521V41.413C41.3187 41.1846 41.5208 41 41.7697 41C42.0186 41 42.2206 41.1846 42.2206 41.413V42.6521C42.2207 42.8804 42.0186 43.0651 41.7697 43.0651Z" fill="#383838"/>
<path d="M21.4052 54.9359L29.1431 55.8598L36.8806 54.9359L29.1431 53.3953L21.4052 54.9359ZM29.1432 56.6896C29.1238 56.6896 29.104 56.6883 29.0846 56.6858L18.7126 55.4468C18.4952 55.4212 18.3297 55.2556 18.3207 55.0548C18.3113 54.8545 18.461 54.6765 18.6752 54.634L29.0472 52.5689C29.1103 52.5565 29.1757 52.5565 29.2388 52.5689L39.6108 54.634C39.825 54.6765 39.9747 54.8546 39.9657 55.0548C39.9563 55.2556 39.7908 55.4212 39.5734 55.4468L29.2014 56.6858C29.1819 56.6883 29.1626 56.6896 29.1432 56.6896Z" fill="#383838"/>
<path d="M20.8939 50.9107L29.1427 52.5532L37.3921 50.9107L29.1427 49.2681L20.8939 50.9107ZM29.1427 53.3888C29.1107 53.3888 29.0787 53.3855 29.0471 53.3797L18.6752 51.3146C18.4677 51.2729 18.3198 51.1052 18.3198 50.9107C18.3198 50.7161 18.4677 50.5484 18.6752 50.5067L29.0471 48.4416C29.1103 48.4296 29.1757 48.4296 29.2388 48.4416L39.6108 50.5067C39.8182 50.5484 39.9657 50.7161 39.9657 50.9107C39.9657 51.1052 39.8183 51.2729 39.6108 51.3146L29.2388 53.3797C29.2072 53.3855 29.1752 53.3888 29.1427 53.3888Z" fill="#383838"/>
<path d="M41.2209 59.1577L29.143 56.6994L17.0651 59.1577L16.8694 58.351L29.143 55.853L41.4167 58.351L41.2209 59.1577Z" fill="#383838"/>
<path d="M29.1429 49.2709L15.9592 46.3562L16.1712 45.5537L29.1429 48.4213L42.1146 45.5537L42.3266 46.3562L29.1429 49.2709Z" fill="#383838"/>
<path d="M22.8296 62.4601C22.8296 63.8288 21.6183 64.9382 20.1238 64.9382C18.6294 64.9382 17.4181 63.8288 17.4181 62.4601C17.4181 61.0913 18.6294 59.9819 20.1238 59.9819C21.6183 59.9819 22.8296 61.0913 22.8296 62.4601Z" fill="#494949"/>
<path d="M21.0258 62.4608C21.0258 62.9172 20.6222 63.2869 20.1239 63.2869C19.6255 63.2869 19.2219 62.9172 19.2219 62.4608C19.2219 62.0044 19.6255 61.6348 20.1239 61.6348C20.6222 61.6348 21.0258 62.0045 21.0258 62.4608Z" fill="#A2A2A2"/>
<path d="M16.0652 45.9558H42.2206V44.3037H16.0652V45.9558Z" fill="#7C7B7A"/>
<path d="M27.3391 44.3037H30.9468V41.4126H27.3391V44.3037Z" fill="#B2B2B2"/>
<path d="M16.0652 44.3029H27.339V42.6509H16.0652V44.3029Z" fill="#383838"/>
<path d="M30.9468 44.3029H42.2206V42.6509H30.9468V44.3029Z" fill="#383838"/>
<path d="M35.4563 62.4601C35.4563 63.8288 36.6676 64.9382 38.162 64.9382C39.6565 64.9382 40.8678 63.8288 40.8678 62.4601C40.8678 61.0913 39.6565 59.9819 38.162 59.9819C36.6675 59.9819 35.4563 61.0913 35.4563 62.4601Z" fill="#494949"/>
<path d="M29.1429 58.3311H16.0652V61.876C16.0652 62.1995 16.3511 62.4613 16.7042 62.4613H17.4181C17.4181 61.0926 18.6293 59.9832 20.1238 59.9832C21.6182 59.9832 22.8295 61.0926 22.8295 62.4613H29.1429H35.4563C35.4563 61.0926 36.6676 59.9832 38.162 59.9832C39.6565 59.9832 40.8678 61.0926 40.8678 62.4613H41.5816C41.9347 62.4613 42.2206 62.1995 42.2206 61.876V58.3311H29.1429Z" fill="#74B73E"/>
<path d="M37.2601 62.4608C37.2601 62.9172 37.6637 63.2869 38.1621 63.2869C38.6603 63.2869 39.064 62.9172 39.064 62.4608C39.064 62.0044 38.6604 61.6348 38.1621 61.6348C37.6637 61.6348 37.2601 62.0045 37.2601 62.4608Z" fill="#A2A2A2"/>
<defs>
<linearGradient id="paint0_linear_2280_129" x1="22.2041" y1="37.6684" x2="-0.206979" y2="52.8527" gradientUnits="userSpaceOnUse">
<stop stop-color="#416B19"/>
<stop offset="1" stop-color="#559D11"/>
</linearGradient>
<linearGradient id="paint1_linear_2280_129" x1="6.2449" y1="69" x2="32.991" y2="63.5229" gradientUnits="userSpaceOnUse">
<stop stop-color="#737373"/>
<stop offset="1" stop-color="#484848"/>
</linearGradient>
</defs>
</svg>
