<svg width="38" height="38" viewBox="0 0 38 38" fill="none" xmlns="http://www.w3.org/2000/svg">
<g clip-path="url(#clip0_2271_23)">
<path d="M18.6122 37.2245C28.8915 37.2245 37.2245 28.8915 37.2245 18.6122C37.2245 8.33301 28.8915 0 18.6122 0C8.33301 0 0 8.33301 0 18.6122C0 28.8915 8.33301 37.2245 18.6122 37.2245Z" fill="#25D366"/>
<path fill-rule="evenodd" clip-rule="evenodd" d="M19.2258 28.9675H19.2212C17.3689 28.9669 15.5488 28.5021 13.9323 27.6203L8.06531 29.1594L9.6354 23.4244C8.66687 21.7459 8.15728 19.842 8.15806 17.8914C8.16054 11.7893 13.1254 6.82471 19.2256 6.82471C22.1863 6.82599 24.9651 7.9786 27.0546 10.0705C29.1441 12.1624 30.2942 14.943 30.2931 17.9002C30.2907 24.0009 25.3278 28.965 19.2258 28.9675ZM14.2042 25.6168L14.54 25.8161C15.9524 26.6543 17.5714 27.0977 19.222 27.0983H19.2258C24.2958 27.0983 28.4224 22.9717 28.4244 17.8995C28.4254 15.4416 27.4695 13.1305 25.7327 11.3917C23.996 9.65292 21.6864 8.69486 19.2293 8.694C14.1553 8.694 10.0287 12.8203 10.0267 17.8921C10.026 19.6303 10.5124 21.323 11.4331 22.7875L11.6519 23.1356L10.7226 26.53L14.2042 25.6168ZM24.4227 20.2829C24.6155 20.3761 24.7458 20.4391 24.8014 20.5319C24.8705 20.6473 24.8705 21.201 24.6402 21.847C24.4096 22.493 23.3049 23.0825 22.7736 23.1618C22.2972 23.2331 21.6942 23.2628 21.0318 23.0523C20.6301 22.9249 20.1151 22.7547 19.4553 22.4698C16.8628 21.3503 15.1108 18.8377 14.7797 18.3628C14.7565 18.3295 14.7403 18.3062 14.7312 18.2941L14.729 18.2912C14.5827 18.0959 13.6021 16.7875 13.6021 15.4335C13.6021 14.1596 14.2277 13.492 14.5158 13.1847C14.5355 13.1637 14.5537 13.1443 14.5699 13.1265C14.8234 12.8497 15.123 12.7804 15.3073 12.7804C15.4917 12.7804 15.6762 12.7821 15.8374 12.7902C15.8572 12.7913 15.878 12.7911 15.8993 12.7909C16.0604 12.79 16.2614 12.7889 16.4596 13.2649C16.5358 13.4481 16.6474 13.7198 16.7651 14.0063C17.003 14.5856 17.266 15.2257 17.3122 15.3183C17.3814 15.4567 17.4274 15.6181 17.3352 15.8027C17.3214 15.8304 17.3086 15.8565 17.2964 15.8815C17.2271 16.0229 17.1762 16.1268 17.0587 16.2641C17.0125 16.318 16.9648 16.3761 16.917 16.4343C16.8218 16.5502 16.7267 16.666 16.6439 16.7485C16.5054 16.8864 16.3613 17.036 16.5226 17.3129C16.6839 17.5897 17.239 18.4953 18.061 19.2286C18.9448 20.0168 19.7128 20.35 20.1022 20.5188C20.1782 20.5519 20.2397 20.5785 20.2849 20.6012C20.5613 20.7396 20.7226 20.7164 20.884 20.5319C21.0453 20.3474 21.5753 19.7244 21.7596 19.4476C21.9439 19.1709 22.1283 19.217 22.3818 19.3092C22.6354 19.4016 23.9949 20.0705 24.2715 20.2089C24.3254 20.2359 24.3759 20.2604 24.4227 20.2829Z" fill="#FDFDFD"/>
</g>
<defs>
<clipPath id="clip0_2271_23">
<rect width="37.2245" height="37.2245" fill="white"/>
</clipPath>
</defs>
</svg>
